<svg width="100" height="100" viewBox="0 0 100 100" fill="none" xmlns="http://www.w3.org/2000/svg">
<g clip-path="url(#clip0)">
<path d="M58.8979 36.0436H64.2044C64.8907 36.0436 65.4476 35.4868 65.4476 34.8004C65.4476 34.1132 64.8907 33.5571 64.2044 33.5571H58.8979C58.2107 33.5571 57.6546 34.1132 57.6546 34.8004C57.6546 35.4868 58.2107 36.0436 58.8979 36.0436Z" fill="#56A7F2"/>
<path d="M35.5285 36.0436H54.1401C54.8273 36.0436 55.3834 35.4868 55.3834 34.8004C55.3834 34.1132 54.8273 33.5571 54.1401 33.5571H35.5285C34.8422 33.5571 34.2853 34.1132 34.2853 34.8004C34.2853 35.4868 34.8422 36.0436 35.5285 36.0436Z" fill="#56A7F2"/>
<path d="M22.7609 36.0436H30.6761C31.3625 36.0436 31.9194 35.4868 31.9194 34.8004C31.9194 34.1132 31.3625 33.5571 30.6761 33.5571H22.7609C22.0737 33.5571 21.5176 34.1132 21.5176 34.8004C21.5176 35.4868 22.0737 36.0436 22.7609 36.0436Z" fill="#56A7F2"/>
<path d="M51.1858 44.5112H29.1415C28.4543 44.5112 27.8982 45.0681 27.8982 45.7545C27.8982 46.4409 28.4543 46.9977 29.1415 46.9977H51.1858C51.8722 46.9977 52.429 46.4409 52.429 45.7545C52.429 45.0681 51.8722 44.5112 51.1858 44.5112Z" fill="#56A7F2"/>
<path d="M22.7609 46.9977H25.0685C25.7549 46.9977 26.3118 46.4409 26.3118 45.7545C26.3118 45.0681 25.7549 44.5112 25.0685 44.5112H22.7609C22.0737 44.5112 21.5176 45.0681 21.5176 45.7545C21.5176 46.4409 22.0737 46.9977 22.7609 46.9977Z" fill="#56A7F2"/>
<path d="M22.7609 58.6345H37.5262C38.2134 58.6345 38.7694 58.0776 38.7694 57.3912C38.7694 56.7048 38.2134 56.1479 37.5262 56.1479H22.7609C22.0737 56.1479 21.5176 56.7048 21.5176 57.3912C21.5176 58.0776 22.0737 58.6345 22.7609 58.6345Z" fill="#56A7F2"/>
<path d="M28.7295 66.9028H22.7609C22.0737 66.9028 21.5176 67.4597 21.5176 68.1461C21.5176 68.8333 22.0737 69.3893 22.7609 69.3893H28.7295C29.4159 69.3893 29.9727 68.8333 29.9727 68.1461C29.9727 67.4597 29.4159 66.9028 28.7295 66.9028Z" fill="#56A7F2"/>
<path d="M94.8114 27.5402C93.1999 25.0942 89.912 24.4135 87.4628 26.0193L86.1127 26.9064H86.1094L83.7314 28.471V10.1824C83.7281 7.25313 81.3541 4.87913 78.4249 4.87589H51.2052C49.7863 1.89726 46.7818 0 43.4826 0C40.1826 0 37.1781 1.89726 35.7592 4.87589H8.53953C5.61028 4.87913 3.23627 7.25313 3.23304 10.1824V94.6954C3.23789 97.6239 5.61109 99.9963 8.53953 100H78.4249C81.3533 99.9971 83.7265 97.6239 83.7314 94.6954V43.8045L94.499 36.7295C96.945 35.1179 97.6257 31.8309 96.0199 29.3808L94.8114 27.5402ZM48.6588 63.8731L47.1889 61.635L89.2726 33.9831L90.7433 36.2211L48.6588 63.8731ZM71.8217 74.6504H65.2809C62.3516 74.6536 59.9776 77.0268 59.9744 79.9561V86.3245H15.9311C15.4964 86.3237 15.1443 85.9708 15.1435 85.5361V19.3409C15.1443 18.9054 15.4964 18.5533 15.9311 18.5517H21.5176V21.965C21.5176 22.6514 22.0737 23.2082 22.7609 23.2082H64.2043C64.8907 23.2082 65.4476 22.6514 65.4476 21.965V18.5517H71.0333C71.468 18.5525 71.8209 18.9054 71.8217 19.3409V36.2964L41.9488 55.9246C41.9294 55.9376 41.9115 55.9514 41.8929 55.9659C41.8816 55.974 41.8703 55.9821 41.8589 55.991C41.8209 56.021 41.7845 56.0533 41.7497 56.0873L41.748 56.089C41.7149 56.1229 41.6833 56.1594 41.6542 56.1974C41.6469 56.2063 41.6404 56.2152 41.6331 56.2241C41.6096 56.2557 41.5878 56.2889 41.5675 56.3229C41.5635 56.3285 41.5595 56.3334 41.5554 56.3399L35.9073 66.073L34.2286 67.1755C33.6547 67.5526 33.4953 68.3232 33.8725 68.8971C34.2497 69.4709 35.0202 69.6304 35.5941 69.2532L37.2728 68.1508L48.4475 66.8298C48.454 66.8298 48.4605 66.8274 48.467 66.8266C48.4872 66.8234 48.5066 66.8193 48.5269 66.8153C48.5633 66.8088 48.5989 66.8015 48.6337 66.7918C48.6547 66.7861 48.6758 66.7788 48.696 66.7708C48.73 66.7594 48.7632 66.7473 48.7956 66.7335C48.8158 66.7246 48.8369 66.7149 48.8563 66.7052C48.8879 66.689 48.9186 66.672 48.9486 66.6534C48.9607 66.6461 48.9728 66.6412 48.985 66.6323L71.8217 51.6291V74.6504ZM70.1139 77.1369L62.4609 84.7899V79.9561C62.4625 78.3996 63.7244 77.1385 65.2809 77.1369H70.1139ZM46.1585 64.5959L39.1595 65.4239L42.6975 59.3274L44.428 61.962L46.1585 64.5959ZM45.8234 59.5573L44.3535 57.3193L83.1818 31.8074L83.1842 31.8058L86.4372 29.6682L87.9079 31.9062L45.8234 59.5573ZM78.4249 7.3624C79.9814 7.36402 81.2424 8.62508 81.2449 10.1824V30.1044L74.3082 34.663V19.3409C74.3058 17.5327 72.8408 16.0676 71.0333 16.0652H65.4476V12.214C65.4476 11.5268 64.8907 10.9708 64.2043 10.9708H52.0389V8.55709C52.0381 8.15725 52.0098 7.75821 51.9539 7.3624H78.4249ZM43.4826 2.48732C46.8336 2.49056 49.55 5.20694 49.5532 8.55871V12.214C49.5532 12.9004 50.1101 13.4573 50.7965 13.4573H62.9619V20.7217H24.0041V13.4573H36.1688C36.8552 13.4573 37.412 12.9004 37.412 12.214V8.55709C37.4161 5.20613 40.1317 2.49137 43.4826 2.48732ZM81.2449 94.6954C81.2416 96.2511 79.9806 97.5122 78.4249 97.5138H8.53953C6.98385 97.5114 5.72278 96.2511 5.71955 94.6954V10.1824C5.72117 8.62589 6.98304 7.36402 8.53953 7.3624H35.0105C34.9547 7.75821 34.9263 8.15725 34.9255 8.55709V10.9708H22.7609C22.0737 10.9708 21.5176 11.5268 21.5176 12.214V16.0652H15.9311C14.1237 16.0684 12.6594 17.5327 12.657 19.3409V85.5369C12.6594 87.3436 14.1237 88.8086 15.9311 88.811H60.4309C60.596 88.8094 60.7603 88.7973 60.923 88.7746C61.0193 88.7981 61.1181 88.8102 61.2176 88.811C61.577 88.811 61.9186 88.6548 62.1533 88.3845C62.4779 88.2121 62.7741 87.9927 63.0339 87.7329L73.2301 77.5383C73.9221 76.8495 74.3098 75.9122 74.3074 74.9353V49.9949L81.2441 45.4363L81.2449 94.6954ZM93.1335 34.6517L92.8211 34.8565L88.5158 28.3035L88.8282 28.0987C90.1298 27.2432 91.8781 27.605 92.7328 28.9065L93.9413 30.7463C94.7944 32.0478 94.4326 33.7945 93.1335 34.6509V34.6517Z" fill="#56A7F2"/>
</g>
<defs>
<clipPath id="clip0">
<rect width="100" height="100" fill="white"/>
</clipPath>
</defs>
</svg>
