<svg width="80" height="80" viewBox="0 0 80 80" fill="none" xmlns="http://www.w3.org/2000/svg">
<g clip-path="url(#clip0)">
<path d="M68.3902 11.7378C64.7436 8.09363 60.4289 5.187 55.6819 3.17668C42.0128 -2.64402 26.2379 -0.353333 14.79 9.11585V5.36378C14.79 4.62813 14.1933 4.03142 13.457 4.03142C12.7207 4.03142 12.124 4.62813 12.124 5.36378V12.0281C12.124 12.7643 12.7207 13.361 13.457 13.361H17.9776C17.1607 14.0409 16.3692 14.7548 15.6094 15.5134C13.5079 17.6292 11.6874 20.0067 10.1931 22.5877C10.1609 22.6206 10.1305 22.6547 10.1025 22.6907C10.0839 22.7235 10.0839 22.7614 10.0678 22.7943C4.67386 32.1741 3.97605 43.5364 8.18278 53.5049C8.73607 54.7858 9.36504 56.0319 10.0678 57.2371C10.0839 57.27 10.0839 57.3072 10.1025 57.3407C10.1422 57.4003 10.1869 57.4567 10.2353 57.5088C13.2176 62.6764 17.513 66.9631 22.6868 69.9343C22.7252 69.9609 22.7482 70.0012 22.7891 70.0254C22.8369 70.0478 22.8853 70.0676 22.9343 70.085C32.3067 75.4585 43.6497 76.1488 53.604 71.9508C54.8712 71.4031 56.1043 70.7803 57.2971 70.085C57.3455 70.0682 57.3933 70.0496 57.4398 70.0279C57.4751 70 57.5093 69.9696 57.5409 69.9374C62.7146 66.9662 67.0107 62.6801 69.9936 57.5125C70.042 57.4598 70.086 57.4034 70.1264 57.3438C70.145 57.3103 70.145 57.2731 70.1611 57.2396C76.3763 46.5987 76.3763 33.4352 70.1611 22.7943C70.145 22.7614 70.145 22.7235 70.1264 22.6907C70.0985 22.6553 70.0687 22.6212 70.037 22.5889C67.0516 17.3929 62.7413 13.0825 57.5446 10.0965C57.5062 10.0705 57.4838 10.0301 57.4423 10.006C57.4007 9.98238 57.3716 9.98735 57.3381 9.97184C47.9582 4.57665 36.5947 3.87945 26.6249 8.08681C25.3447 8.6401 24.0985 9.26906 22.8933 9.97184C22.8598 9.98735 22.8226 9.98735 22.7891 10.006C22.7538 10.0345 22.7197 10.0643 22.688 10.0965C22.1403 10.4153 21.5895 10.7323 21.0604 11.0815C20.8111 10.8328 20.473 10.6938 20.1213 10.6951H17.0435C27.7203 2.29092 42.1208 0.351305 54.6405 5.6305C63.5917 9.41483 70.7156 16.5381 74.4993 25.4894C78.4114 34.7793 78.4114 45.2546 74.4993 54.5445C70.7156 63.4958 63.5917 70.6197 54.6405 74.4034C45.3505 78.3155 34.8759 78.3155 25.5853 74.4034C16.6347 70.6197 9.5108 63.4958 5.72648 54.5445C1.81438 45.2546 1.81438 34.7793 5.72648 25.4894C6.01429 24.8114 5.69794 24.0286 5.0206 23.7408C4.34263 23.453 3.55922 23.7693 3.27141 24.4473C-0.919816 34.4028 -0.919816 45.6274 3.27141 55.5829C7.3268 65.1699 14.9569 72.7999 24.5433 76.856C34.4988 81.0478 45.724 81.0478 55.6788 76.856C65.2659 72.8006 72.8959 65.1705 76.9519 55.5841C81.1438 45.6286 81.1438 34.404 76.9519 24.4485C74.9416 19.7003 72.0343 15.3844 68.3902 11.7378V11.7378ZM27.6633 10.5382C31.1889 9.04824 34.9553 8.209 38.7805 8.06138V16.0264C38.7805 16.7627 39.3773 17.3594 40.1129 17.3594C40.8492 17.3594 41.4459 16.7627 41.4459 16.0264V8.06138C45.2705 8.21087 49.0362 9.05072 52.5613 10.5406C53.3732 10.883 54.161 11.275 54.9339 11.6801L52.2871 16.2664C52.0452 16.6789 52.0427 17.1894 52.2809 17.6044C52.5191 18.0187 52.9614 18.2743 53.4396 18.273C53.9178 18.2724 54.3589 18.015 54.5952 17.5994L57.237 13.0249C61.2297 15.5227 64.6022 18.8952 67.1 22.8879L62.531 25.5347C62.1155 25.771 61.858 26.212 61.8568 26.6902C61.8556 27.1685 62.1111 27.6107 62.5261 27.8489C62.9404 28.0871 63.4509 28.0852 63.864 27.8433L68.4485 25.196C68.8486 25.9719 69.2481 26.7572 69.588 27.5673C71.0791 31.093 71.9196 34.8593 72.0685 38.684H64.1035C63.3678 38.684 62.7711 39.2807 62.7711 40.0169C62.7711 40.7532 63.3678 41.3499 64.1035 41.3499H72.0685C71.9196 45.1739 71.0797 48.9403 69.5892 52.4653C69.2468 53.2773 68.8554 54.065 68.4498 54.8379L63.864 52.1912C63.4509 51.9493 62.9404 51.9468 62.5261 52.185C62.1111 52.4231 61.8556 52.8654 61.8568 53.3436C61.858 53.8219 62.1155 54.2629 62.531 54.4992L67.105 57.141C64.6071 61.1331 61.2347 64.5062 57.2425 67.0034L54.5952 62.4351C54.3589 62.0189 53.9178 61.7621 53.4396 61.7608C52.9614 61.7596 52.5191 62.0151 52.2809 62.4295C52.0427 62.8445 52.0452 63.355 52.2871 63.7674L54.9339 68.3525C54.1585 68.7526 53.3745 69.1521 52.5632 69.492C49.0375 70.9831 45.2712 71.8236 41.4459 71.9725V64.0075C41.4459 63.2712 40.8492 62.6745 40.1129 62.6745C39.3773 62.6745 38.7805 63.2712 38.7805 64.0075V71.9725C34.9559 71.8236 31.1902 70.9838 27.6645 69.4932C26.8532 69.1508 26.0654 68.7588 25.2926 68.3525L27.9393 63.7674C28.3015 63.131 28.0813 62.3209 27.4468 61.9544C26.8129 61.5884 26.0016 61.803 25.6306 62.4351L22.9895 67.009C18.9967 64.5112 15.6243 61.1387 13.1264 57.146L17.7004 54.5048C18.1166 54.2685 18.3734 53.8275 18.3746 53.3492C18.3758 52.8704 18.1203 52.4287 17.7059 52.1905C17.291 51.9524 16.7805 51.9542 16.368 52.1961L11.7779 54.8379C11.3778 54.0619 10.9778 53.2773 10.6378 52.4666C9.1467 48.9415 8.30684 45.1746 8.15797 41.3499H16.1224C16.8586 41.3499 17.4553 40.7532 17.4553 40.0169C17.4553 39.2807 16.8586 38.684 16.1224 38.684H8.15797C8.30684 34.8599 9.1467 31.0936 10.6366 27.5685C10.979 26.7572 11.371 25.9695 11.7761 25.196L16.3624 27.8433C16.7749 28.0852 17.2854 28.0871 17.7004 27.8489C18.1153 27.6107 18.3703 27.1685 18.3696 26.6902C18.3684 26.212 18.111 25.771 17.6954 25.5347L13.1208 22.8929C15.6187 18.9008 18.9912 15.5283 22.9839 13.0304L25.6257 17.6044C25.862 18.0206 26.303 18.2774 26.7812 18.2786C27.2595 18.2799 27.7017 18.0243 27.9399 17.6093C28.1781 17.195 28.1756 16.6845 27.9337 16.272L25.2926 11.6813C26.0679 11.275 26.852 10.8843 27.6633 10.5419V10.5382Z" fill="#56A7F2"/>
<path d="M23.0161 38.9153C20.9345 40.9969 20.9345 44.3719 23.0161 46.4535L32.3458 55.7831C33.3426 56.7868 34.7003 57.3487 36.1146 57.3444H36.3695C37.8731 57.2737 39.2768 56.5709 40.2345 55.4091L58.8937 32.7509C60.1386 31.2846 60.4978 29.2612 59.8322 27.4562C59.1673 25.6512 57.5812 24.3449 55.6819 24.0372C53.7832 23.7302 51.866 24.4696 50.6651 25.9725L35.7375 44.0989L30.5594 38.9221C28.4523 36.9012 25.1269 36.8981 23.0161 38.9153V38.9153ZM34.8858 47.0149C35.1476 47.2866 35.5154 47.4292 35.8919 47.4038C36.2678 47.3858 36.6182 47.2103 36.8571 46.92L52.7176 27.6609C53.1667 27.1132 53.8167 26.7677 54.522 26.7026C55.9865 26.5636 57.2872 27.6373 57.4274 29.1018C57.4975 29.8052 57.2829 30.5074 56.8319 31.052L38.1727 53.7096C37.6907 54.2939 36.9836 54.6456 36.2269 54.6772L36.1146 54.6784C35.4075 54.6803 34.7289 54.3993 34.2302 53.8975L24.9005 44.5679C24.2077 43.8986 23.9298 42.9074 24.1736 41.9757C24.4174 41.0434 25.1456 40.3159 26.0772 40.0715C27.0095 39.8277 28.0001 40.1056 28.6694 40.7984L34.8858 47.0149Z" fill="#56A7F2"/>
</g>
<defs>
<clipPath id="clip0">
<rect width="80" height="80" fill="white"/>
</clipPath>
</defs>
</svg>
