<svg width="19" height="16" viewBox="0 0 19 16" fill="none" xmlns="http://www.w3.org/2000/svg">
<path d="M17.3301 1.90625H1.66992C0.750277 1.90625 0 2.53737 0 3.3125V12.6875C0 13.46 0.746938 14.0938 1.66992 14.0938H17.3301C18.2474 14.0938 19 13.4647 19 12.6875V3.3125C19 2.54 18.2531 1.90625 17.3301 1.90625ZM17.0995 2.84375L9.5354 9.21353L1.9059 2.84375H17.0995ZM1.11328 12.4934V3.50216L6.47481 7.97841L1.11328 12.4934ZM1.90048 13.1562L7.26538 8.63844L9.14523 10.2079C9.36284 10.3896 9.71401 10.389 9.93073 10.2064L11.7637 8.66291L17.0995 13.1562H1.90048ZM17.8867 12.4933L12.5509 8L17.8867 3.50662V12.4933Z" fill="#7AB1FF"/>
</svg>
