<svg width="100" height="100" viewBox="0 0 100 100" fill="none" xmlns="http://www.w3.org/2000/svg">
<g clip-path="url(#clip0)">
<path d="M75.2698 20.0819C76.079 20.0819 76.7346 19.4263 76.7346 18.6171V16.6479C76.7346 15.8388 76.079 15.1831 75.2698 15.1831C74.4606 15.1831 73.8049 15.8388 73.8049 16.6479V18.6171C73.8049 19.4261 74.4608 20.0819 75.2698 20.0819Z" fill="#56A7F2"/>
<path d="M91.207 33.0894C90.3979 33.0894 89.7422 33.745 89.7422 34.5542C89.7422 35.3634 90.3979 36.019 91.207 36.019H93.176C93.9852 36.019 94.6408 35.3634 94.6408 34.5542C94.6408 33.745 93.9852 33.0894 93.176 33.0894H91.207Z" fill="#56A7F2"/>
<path d="M57.3635 33.0894C56.5543 33.0894 55.8987 33.745 55.8987 34.5542C55.8987 35.3634 56.5543 36.019 57.3635 36.019H59.3326C60.1418 36.019 60.7975 35.3634 60.7975 34.5542C60.7975 33.745 60.1418 33.0894 59.3326 33.0894H57.3635Z" fill="#56A7F2"/>
<path d="M81.6944 79.8804C79.0928 79.8804 76.9762 81.997 76.9762 84.5983C76.9762 87.1997 79.0928 89.3163 81.6944 89.3163C84.2957 89.3163 86.4123 87.1997 86.4123 84.5983C86.4123 81.997 84.2957 79.8804 81.6944 79.8804ZM81.6944 86.3866C80.708 86.3866 79.9059 85.5845 79.9059 84.5983C79.9059 83.6122 80.708 82.8101 81.6944 82.8101C82.6805 82.8101 83.4826 83.6122 83.4826 84.5983C83.4826 85.5845 82.6805 86.3866 81.6944 86.3866Z" fill="#56A7F2"/>
<path d="M28.2078 84.5983C28.2078 87.1997 30.3244 89.3163 32.926 89.3163C35.5276 89.3163 37.644 87.1997 37.644 84.5983C37.644 81.997 35.5276 79.8804 32.926 79.8804C30.3244 79.8804 28.2078 81.9968 28.2078 84.5983ZM34.7143 84.5983C34.7143 85.5845 33.9121 86.3866 32.926 86.3866C31.9399 86.3866 31.1375 85.5845 31.1375 84.5983C31.1375 83.6122 31.9399 82.8101 32.926 82.8101C33.9121 82.8101 34.7143 83.6122 34.7143 84.5983Z" fill="#56A7F2"/>
<path d="M42.8713 62.1155C44.525 60.5059 44.7156 57.7061 42.8371 55.878L36.7484 49.9512C34.552 47.8141 31.026 47.8614 28.8883 50.0575L27.7481 51.229C27.1838 51.8089 27.1963 52.7362 27.776 53.3003L33.6451 59.0132L27.776 64.7258C27.4977 64.9967 27.3383 65.3673 27.333 65.7555C27.3277 66.144 27.4772 66.5186 27.7481 66.7971L28.8883 67.9686C31.033 70.1719 34.5514 70.2137 36.7484 68.0747L42.8713 62.1155ZM30.9877 65.9255L30.8692 65.8038L36.767 60.063C37.0502 59.7874 37.2102 59.4087 37.2102 59.0134C37.2102 58.618 37.0504 58.2393 36.767 57.9637L30.8692 52.2227L30.9877 52.101C31.999 51.0622 33.6664 51.0397 34.7051 52.0507L40.7938 57.9774C41.4436 58.6098 41.3566 59.5012 40.8279 60.0161L34.7051 65.9757C33.6713 66.9817 32.0072 66.9729 30.9877 65.9255V65.9255Z" fill="#56A7F2"/>
<path d="M73.8049 34.5544C73.8049 35.3636 74.4606 36.0192 75.2698 36.0192H80.2514C81.0606 36.0192 81.7162 35.3636 81.7162 34.5544C81.7162 33.7452 81.0606 33.0896 80.2514 33.0896H76.7346V23.9673C76.7346 23.1581 76.079 22.5024 75.2698 22.5024C74.4606 22.5024 73.8049 23.1581 73.8049 23.9673V34.5544Z" fill="#56A7F2"/>
<path d="M25.0237 22.0352H50.2465C51.0557 22.0352 51.7113 21.3795 51.7113 20.5703C51.7113 19.7611 51.0557 19.1055 50.2465 19.1055H25.0237C24.2147 19.1055 23.5588 19.7611 23.5588 20.5703C23.5588 21.3795 24.2147 22.0352 25.0237 22.0352Z" fill="#56A7F2"/>
<path d="M18.9096 29.603H45.0916C45.9006 29.603 46.5564 28.9474 46.5564 28.1382C46.5564 27.329 45.9006 26.6733 45.0916 26.6733H18.9096C18.1006 26.6733 17.4447 27.329 17.4447 28.1382C17.4447 28.9474 18.1006 29.603 18.9096 29.603V29.603Z" fill="#56A7F2"/>
<path d="M33.8882 33.4224C33.0793 33.4224 32.4234 34.078 32.4234 34.8872C32.4234 35.6964 33.0793 36.3521 33.8882 36.3521H46.9166C47.7255 36.3521 48.3814 35.6964 48.3814 34.8872C48.3814 34.078 47.7255 33.4224 46.9166 33.4224H33.8882Z" fill="#56A7F2"/>
<path d="M21.5381 33.4224C20.7291 33.4224 20.0732 34.078 20.0732 34.8872C20.0732 35.6964 20.7291 36.3521 21.5381 36.3521H28.0404C28.8494 36.3521 29.5053 35.6964 29.5053 34.8872C29.5053 34.078 28.8494 33.4224 28.0404 33.4224H21.5381Z" fill="#56A7F2"/>
<path d="M1.46484 56.5249H6.82227C7.63125 56.5249 8.28711 55.8692 8.28711 55.0601C8.28711 54.2509 7.63125 53.5952 6.82227 53.5952H1.46484C0.655859 53.5952 0 54.2509 0 55.0601C0 55.8692 0.655859 56.5249 1.46484 56.5249Z" fill="#56A7F2"/>
<path d="M5.37109 69.4277H1.46484C0.655859 69.4277 0 70.0834 0 70.8926C0 71.7018 0.655859 72.3574 1.46484 72.3574H5.37109C6.18008 72.3574 6.83594 71.7018 6.83594 70.8926C6.83594 70.0834 6.18008 69.4277 5.37109 69.4277Z" fill="#56A7F2"/>
<path d="M22.6041 57.0234H17.3799C16.5709 57.0234 15.915 57.6791 15.915 58.4883C15.915 59.2975 16.5709 59.9531 17.3799 59.9531H22.6041C23.4131 59.9531 24.0689 59.2975 24.0689 58.4883C24.0689 57.6791 23.4131 57.0234 22.6041 57.0234Z" fill="#56A7F2"/>
<path d="M89.0643 55.079C95.8514 50.5065 100 42.8011 100 34.5542C100 30.6347 99.1084 26.8841 97.3496 23.4073C96.9846 22.6854 96.1031 22.3962 95.3814 22.7612C94.6596 23.1263 94.3701 24.0077 94.7354 24.7294C96.2846 27.7927 97.0703 31.0983 97.0703 34.5542C97.0703 41.971 93.2629 48.8907 87.0629 52.8888L78.5346 43.5565C77.5439 42.4722 76.1332 41.8505 74.6646 41.8505H54.7221C53.8908 39.513 53.4691 37.0632 53.4691 34.5542C53.4691 22.5333 63.2488 12.7538 75.2697 12.7538C81.5053 12.7538 87.4555 15.4343 91.5945 20.1079C92.1305 20.7134 93.0562 20.77 93.6623 20.2333C94.268 19.697 94.3242 18.7712 93.7877 18.1655C91.6357 15.7354 89.051 13.7823 86.2022 12.3774V7.41631C86.2022 5.61357 84.7355 4.14697 82.9328 4.14697H67.6068C65.8041 4.14697 64.3375 5.61357 64.3375 7.41631V12.3761C56.1697 16.4187 50.5395 24.8405 50.5395 34.5542C50.5395 37.0511 50.909 39.4964 51.6365 41.8505H14.2828C12.4143 41.8505 10.8793 43.295 10.7295 45.1259H5.37109C4.56211 45.1259 3.90625 45.7815 3.90625 46.5907C3.90625 47.3999 4.56211 48.0556 5.37109 48.0556H10.7146V62.2142H1.46484C0.655859 62.2142 0 62.8698 0 63.679C0 64.4882 0.655859 65.1438 1.46484 65.1438H10.7146V69.4284C9.91211 69.4358 9.26348 70.0882 9.26348 70.8925C9.26348 71.6968 9.91191 72.3491 10.7146 72.3565V82.7183C10.7146 84.2561 11.9658 85.5071 13.5035 85.5071H17.4447V86.5268H12.8744C12.0654 86.5268 11.4096 87.1825 11.4096 87.9917C11.4096 88.8009 12.0654 89.4565 12.8744 89.4565H18.9096C19.7186 89.4565 20.3744 88.8009 20.3744 87.9917V85.5071H21.7109C22.1758 91.2892 27.0264 95.8528 32.926 95.8528C34.8729 95.8528 36.7947 95.3448 38.4836 94.3839C39.1867 93.9837 39.4322 93.0893 39.0322 92.3862C38.6322 91.6829 37.7381 91.4378 37.0346 91.8374C35.7865 92.5477 34.3656 92.9231 32.926 92.9231C28.3355 92.9231 24.6008 89.1886 24.6008 84.5979C24.6008 80.0073 28.3355 76.2727 32.926 76.2727C37.5164 76.2727 41.2512 80.0073 41.2512 84.5979C41.2512 85.8495 40.9799 87.0532 40.4447 88.1757C40.0965 88.906 40.4064 89.7802 41.1365 90.1282C41.867 90.4763 42.741 90.1665 43.0893 89.4364C43.6828 88.1915 44.0322 86.8729 44.1406 85.5071H70.4793C70.9441 91.2892 75.7947 95.8528 81.6943 95.8528C87.5939 95.8528 92.4443 91.2892 92.9094 85.5071H95.9248C98.1719 85.5071 100 83.679 100 81.4319V69.0745C100 67.7657 99.5139 66.5128 98.6309 65.5468L89.0643 55.079ZM67.2672 7.41631C67.2672 7.229 67.4195 7.07666 67.6068 7.07666H82.9328C83.1201 7.07666 83.2725 7.229 83.2725 7.41631V11.1597C80.7215 10.286 78.0205 9.82432 75.2697 9.82432C72.4703 9.82432 69.7783 10.2927 67.267 11.1538V7.41631H67.2672ZM76.3721 45.5331L91.6162 62.2142H80.6891C79.8799 62.2142 79.2242 62.8698 79.2242 63.679C79.2242 64.4882 79.8799 65.1438 80.6891 65.1438H94.2936L96.4684 67.5237C97.3551 68.494 96.9824 69.547 97.0703 70.6644H95.941C95.1318 70.6644 94.4762 71.32 94.4762 72.1292C94.4762 72.9384 95.1318 73.594 95.941 73.594H97.0703V75.7616H88.6521C86.7357 74.2493 84.3195 73.3435 81.6945 73.3435C79.0695 73.3435 76.6533 74.2493 74.7369 75.7616H58.7766V44.7804H65.0943V62.1958C65.0943 63.8214 66.4168 65.144 68.0424 65.144H74.8328C75.642 65.144 76.2977 64.4884 76.2977 63.6792C76.2977 62.87 75.642 62.2143 74.8328 62.2143H68.0424C68.0322 62.2143 68.024 62.206 68.024 62.1958V44.7804H74.665C75.3125 44.7804 75.935 45.0548 76.3721 45.5331ZM70.6246 82.5778H58.7762V78.6913H72.1195C71.3945 79.862 70.8801 81.1751 70.6246 82.5778ZM42.5006 78.6913H55.8465V82.5778H43.9955C43.74 81.1751 43.2256 79.862 42.5006 78.6913V78.6913ZM13.6443 78.6913H23.351C22.626 79.862 22.1115 81.1751 21.8561 82.5778H13.6443V78.6913ZM25.9682 75.7616H13.6443V72.3575H19.992C20.801 72.3575 21.4568 71.7019 21.4568 70.8927C21.4568 70.0835 20.801 69.4278 19.992 69.4278H13.6443V65.1438H19.992C20.801 65.1438 21.4568 64.4882 21.4568 63.679C21.4568 62.8698 20.801 62.2142 19.992 62.2142H13.6443V45.4188C13.6443 45.0667 13.9307 44.7802 14.2828 44.7802H55.8465V75.7614H39.8836C37.9672 74.2491 35.551 73.3433 32.926 73.3433C30.301 73.3433 27.8848 74.2493 25.9682 75.7616V75.7616ZM81.6943 92.9235C77.1037 92.9235 73.3691 89.189 73.3691 84.5983C73.3691 80.0077 77.1037 76.2731 81.6943 76.2731C86.285 76.2731 90.0195 80.0077 90.0195 84.5983C90.0195 89.189 86.285 92.9235 81.6943 92.9235ZM95.9246 82.5778H92.7639C92.5084 81.1751 91.9939 79.862 91.2689 78.6913H97.0703V81.4323C97.0703 82.064 96.5564 82.5778 95.9246 82.5778Z" fill="#56A7F2"/>
</g>
<defs>
<clipPath id="clip0">
<rect width="100" height="100" fill="white"/>
</clipPath>
</defs>
</svg>
