<svg width="100" height="100" viewBox="0 0 100 100" fill="none" xmlns="http://www.w3.org/2000/svg">
<path d="M65.625 9.375H68.75V12.5H65.625V9.375Z" fill="#56A7F2"/>
<path d="M49.5044 17.3481L51.7141 15.1384L53.9238 17.3481L51.7141 19.5579L49.5044 17.3481Z" fill="#56A7F2"/>
<path d="M87.4219 60.0531L72.6078 68.6078C71.8586 67.8699 70.9328 67.3363 69.9188 67.0578L48.6344 61.3546C47.519 61.0569 46.3517 61.0089 45.2156 61.214L31.25 63.7499V60.9374C31.25 60.523 31.0854 60.1256 30.7924 59.8326C30.4993 59.5396 30.1019 59.3749 29.6875 59.3749H14.0625C13.6481 59.3749 13.2507 59.5396 12.9576 59.8326C12.6646 60.1256 12.5 60.523 12.5 60.9374V62.4999H4.6875C4.2731 62.4999 3.87567 62.6646 3.58265 62.9576C3.28962 63.2506 3.125 63.648 3.125 64.0624V92.1874C3.125 92.6018 3.28962 92.9993 3.58265 93.2923C3.87567 93.5853 4.2731 93.7499 4.6875 93.7499H12.5V95.3124C12.5 95.7268 12.6646 96.1243 12.9576 96.4173C13.2507 96.7103 13.6481 96.8749 14.0625 96.8749H29.6875C30.1019 96.8749 30.4993 96.7103 30.7924 96.4173C31.0854 96.1243 31.25 95.7268 31.25 95.3124V90.8078L55.4281 93.4953C57.2163 93.6917 59.0177 93.2669 60.5297 92.2921L93.6719 70.8859C94.6265 70.3418 95.4191 69.5533 95.9683 68.6016C96.5175 67.6498 96.8035 66.5691 96.7969 65.4703C96.7974 64.3729 96.509 63.2947 95.9606 62.3442C95.4123 61.3937 94.6234 60.6043 93.6732 60.0554C92.7229 59.5065 91.645 59.2174 90.5476 59.2173C89.4503 59.2172 88.3722 59.506 87.4219 60.0546V60.0531ZM6.25 90.6249V65.6249H12.5V90.6249H6.25ZM28.125 93.7499H15.625V62.4999H28.125V93.7499ZM92.0422 68.2187L58.8328 89.6671C57.925 90.2506 56.8447 90.5053 55.7719 90.389L31.25 87.664V66.9296L45.7812 64.289C46.4622 64.1639 47.1626 64.1922 47.8312 64.3718L69.1156 70.0749C69.9162 70.2896 70.5988 70.8135 71.0131 71.5314C71.4275 72.2493 71.5397 73.1024 71.325 73.9031C71.1103 74.7037 70.5864 75.3862 69.8685 75.8006C69.1506 76.2149 68.2975 76.3271 67.4969 76.1124L51.9672 71.9531C51.7671 71.8936 51.5571 71.8747 51.3497 71.8977C51.1422 71.9207 50.9414 71.9851 50.7592 72.0869C50.577 72.1888 50.4171 72.3261 50.2889 72.4908C50.1606 72.6555 50.0667 72.8443 50.0126 73.0459C49.9585 73.2475 49.9454 73.4579 49.974 73.6647C50.0026 73.8715 50.0723 74.0704 50.179 74.2498C50.2858 74.4292 50.4274 74.5853 50.5955 74.7091C50.7636 74.8328 50.9548 74.9216 51.1578 74.9703L66.6828 79.1312C67.4758 79.3438 68.3029 79.3982 69.1168 79.2911C69.9308 79.184 70.7157 78.9176 71.4267 78.5072C72.1377 78.0967 72.7608 77.5501 73.2605 76.8988C73.7603 76.2474 74.1267 75.5039 74.3391 74.7109C74.639 73.5775 74.6114 72.3823 74.2594 71.264L88.9781 62.764C89.3363 62.5627 89.7306 62.4339 90.1385 62.385C90.5464 62.3361 90.96 62.368 91.3556 62.479C91.7512 62.5899 92.1211 62.7776 92.4441 63.0315C92.7671 63.2854 93.037 63.6004 93.2383 63.9585C93.4396 64.3167 93.5683 64.711 93.6173 65.1189C93.6662 65.5268 93.6342 65.9404 93.5233 66.336C93.4124 66.7316 93.2246 67.1015 92.9708 67.4245C92.7169 67.7475 92.4019 68.0174 92.0438 68.2187H92.0422Z" fill="#56A7F2"/>
<path d="M95.3125 25H87.6234C87.4828 24.6328 87.3312 24.2641 87.1641 23.8906L92.6047 18.4484C92.8976 18.1554 93.0622 17.7581 93.0622 17.3438C93.0622 16.9294 92.8976 16.5321 92.6047 16.2391L83.7609 7.39531C83.4679 7.10239 83.0706 6.93783 82.6563 6.93783C82.2419 6.93783 81.8446 7.10239 81.5516 7.39531L76.1109 12.8359C75.7375 12.6688 75.3672 12.5234 75 12.3766V4.6875C75 4.2731 74.8354 3.87567 74.5424 3.58265C74.2493 3.28962 73.8519 3.125 73.4375 3.125H60.9375C60.5231 3.125 60.1257 3.28962 59.8326 3.58265C59.5396 3.87567 59.375 4.2731 59.375 4.6875V12.3766C59.0078 12.5172 58.6375 12.6688 58.2641 12.8359L52.8234 7.39531C52.5304 7.10239 52.1331 6.93783 51.7187 6.93783C51.3044 6.93783 50.9071 7.10239 50.6141 7.39531L41.7703 16.2391C41.4774 16.5321 41.3128 16.9294 41.3128 17.3438C41.3128 17.7581 41.4774 18.1554 41.7703 18.4484L47.2109 23.8891C47.0438 24.2625 46.8984 24.6328 46.7516 25H39.0625C38.6481 25 38.2507 25.1646 37.9576 25.4576C37.6646 25.7507 37.5 26.1481 37.5 26.5625V39.0625C37.5 39.4769 37.6646 39.8743 37.9576 40.1674C38.2507 40.4604 38.6481 40.625 39.0625 40.625H46.7516C46.8922 40.9922 47.0438 41.3625 47.2109 41.7359L41.7703 47.1766C41.4774 47.4696 41.3128 47.8669 41.3128 48.2812C41.3128 48.6956 41.4774 49.0929 41.7703 49.3859L50.6141 58.2297C50.9071 58.5226 51.3044 58.6872 51.7187 58.6872C52.1331 58.6872 52.5304 58.5226 52.8234 58.2297L58.2641 52.7891C58.6375 52.9562 59.0078 53.1016 59.375 53.2484V60.9375C59.375 61.3519 59.5396 61.7493 59.8326 62.0424C60.1257 62.3354 60.5231 62.5 60.9375 62.5H73.4375C73.8519 62.5 74.2493 62.3354 74.5424 62.0424C74.8354 61.7493 75 61.3519 75 60.9375V53.2484C75.3672 53.1078 75.7375 52.9562 76.1109 52.7891L81.5516 58.2297C81.8501 58.512 82.2454 58.6693 82.6563 58.6693C83.0671 58.6693 83.4624 58.512 83.7609 58.2297L92.6047 49.3859C92.8976 49.0929 93.0622 48.6956 93.0622 48.2812C93.0622 47.8669 92.8976 47.4696 92.6047 47.1766L87.1641 41.7344C87.3312 41.3609 87.4766 40.9922 87.6234 40.625H95.3125C95.7269 40.625 96.1243 40.4604 96.4174 40.1674C96.7104 39.8743 96.875 39.4769 96.875 39.0625V26.5625C96.875 26.1481 96.7104 25.7507 96.4174 25.4576C96.1243 25.1646 95.7269 25 95.3125 25V25ZM93.75 37.5H86.5156C86.1834 37.5003 85.8599 37.6065 85.5921 37.8032C85.3243 37.9999 85.1262 38.2768 85.0266 38.5938C84.7186 39.547 84.3367 40.4749 83.8844 41.3687C83.7378 41.662 83.6871 41.9939 83.7395 42.3175C83.792 42.6411 83.9449 42.94 84.1766 43.1719L89.2906 48.2812L82.6563 54.9156L77.5422 49.8016C77.3103 49.5699 77.0114 49.417 76.6878 49.3645C76.3642 49.3121 76.0323 49.3628 75.7391 49.5094C74.8452 49.9617 73.9174 50.3436 72.9641 50.6516C72.6471 50.7512 72.3702 50.9493 72.1735 51.2171C71.9768 51.4849 71.8706 51.8084 71.8703 52.1406V59.375H62.5V52.1406C62.4997 51.8084 62.3935 51.4849 62.1968 51.2171C62.0001 50.9493 61.7232 50.7512 61.4062 50.6516C60.4529 50.3436 59.5251 49.9617 58.6312 49.5094C58.338 49.3628 58.0061 49.3121 57.6825 49.3645C57.3589 49.417 57.06 49.5699 56.8281 49.8016L51.7187 54.9156L45.0844 48.2812L50.1984 43.1672C50.4301 42.9353 50.583 42.6364 50.6355 42.3128C50.6879 41.9892 50.6372 41.6573 50.4906 41.3641C50.0383 40.4702 49.6564 39.5424 49.3484 38.5891C49.2488 38.2721 49.0507 37.9952 48.7829 37.7985C48.5151 37.6018 48.1916 37.4956 47.8594 37.4953H40.625V28.125H47.8594C48.1916 28.1247 48.5151 28.0185 48.7829 27.8218C49.0507 27.6251 49.2488 27.3482 49.3484 27.0312C49.6564 26.0779 50.0383 25.1501 50.4906 24.2563C50.6372 23.963 50.6879 23.6311 50.6355 23.3075C50.583 22.9839 50.4301 22.685 50.1984 22.4531L45.0844 17.3438L51.7187 10.7094L56.8328 15.8234C57.0647 16.0551 57.3636 16.208 57.6872 16.2605C58.0108 16.3129 58.3427 16.2622 58.6359 16.1156C59.5283 15.6635 60.4545 15.2816 61.4062 14.9734C61.7232 14.8738 62.0001 14.6757 62.1968 14.4079C62.3935 14.1401 62.4997 13.8166 62.5 13.4844V6.25H71.875V13.4844C71.8753 13.8166 71.9815 14.1401 72.1782 14.4079C72.3749 14.6757 72.6518 14.8738 72.9688 14.9734C73.9221 15.2814 74.8499 15.6633 75.7438 16.1156C76.037 16.2622 76.3689 16.3129 76.6925 16.2605C77.0161 16.208 77.315 16.0551 77.5469 15.8234L82.6563 10.7094L89.2906 17.3438L84.1766 22.4578C83.9449 22.6897 83.792 22.9886 83.7395 23.3122C83.6871 23.6358 83.7378 23.9677 83.8844 24.2609C84.3367 25.1548 84.7186 26.0826 85.0266 27.0359C85.1262 27.3529 85.3243 27.6298 85.5921 27.8265C85.8599 28.0232 86.1834 28.1294 86.5156 28.1297H93.75V37.5Z" fill="#56A7F2"/>
<path d="M67.1875 20.3125C64.7152 20.3125 62.2985 21.0456 60.2429 22.4191C58.1873 23.7926 56.5851 25.7449 55.639 28.029C54.6929 30.313 54.4454 32.8264 54.9277 35.2511C55.41 37.6759 56.6005 39.9032 58.3487 41.6513C60.0968 43.3995 62.3241 44.59 64.7489 45.0723C67.1736 45.5546 69.687 45.3071 71.971 44.361C74.2551 43.4149 76.2074 41.8127 77.5809 39.7571C78.9544 37.7015 79.6875 35.2848 79.6875 32.8125C79.6838 29.4984 78.3656 26.3212 76.0222 23.9778C73.6788 21.6344 70.5016 20.3162 67.1875 20.3125V20.3125ZM67.1875 42.1875C65.3333 42.1875 63.5207 41.6377 61.979 40.6075C60.4373 39.5774 59.2357 38.1132 58.5261 36.4002C57.8166 34.6871 57.6309 32.8021 57.9926 30.9835C58.3544 29.165 59.2473 27.4945 60.5584 26.1834C61.8695 24.8723 63.54 23.9794 65.3585 23.6176C67.1771 23.2559 69.0621 23.4416 70.7752 24.1511C72.4882 24.8607 73.9524 26.0623 74.9825 27.604C76.0127 29.1457 76.5625 30.9583 76.5625 32.8125C76.56 35.2981 75.5715 37.6813 73.8139 39.4389C72.0563 41.1965 69.6732 42.185 67.1875 42.1875Z" fill="#56A7F2"/>
<path d="M21.875 92.1875C22.8021 92.1875 23.7084 91.9126 24.4792 91.3975C25.2501 90.8824 25.8509 90.1504 26.2057 89.2938C26.5605 88.4373 26.6533 87.4948 26.4724 86.5855C26.2916 85.6762 25.8451 84.841 25.1896 84.1854C24.534 83.5299 23.6988 83.0834 22.7895 82.9026C21.8802 82.7217 20.9377 82.8145 20.0812 83.1693C19.2246 83.5241 18.4926 84.1249 17.9775 84.8958C17.4624 85.6666 17.1875 86.5729 17.1875 87.5C17.1875 88.7432 17.6814 89.9355 18.5604 90.8146C19.4395 91.6936 20.6318 92.1875 21.875 92.1875V92.1875ZM21.875 85.9375C22.184 85.9375 22.4861 86.0291 22.7431 86.2008C23 86.3725 23.2003 86.6165 23.3186 86.9021C23.4368 87.1876 23.4678 87.5017 23.4075 87.8048C23.3472 88.1079 23.1984 88.3863 22.9799 88.6049C22.7613 88.8234 22.4829 88.9722 22.1798 89.0325C21.8767 89.0928 21.5626 89.0618 21.2771 88.9436C20.9915 88.8253 20.7475 88.625 20.5758 88.3681C20.4041 88.1111 20.3125 87.809 20.3125 87.5C20.3125 87.0856 20.4771 86.6882 20.7701 86.3951C21.0632 86.1021 21.4606 85.9375 21.875 85.9375V85.9375Z" fill="#56A7F2"/>
<path d="M43.75 31.25H46.875V34.375H43.75V31.25Z" fill="#56A7F2"/>
<path d="M49.5011 48.2812L51.7108 46.0715L53.9205 48.2812L51.7108 50.491L49.5011 48.2812Z" fill="#56A7F2"/>
<path d="M65.625 53.125H68.75V56.25H65.625V53.125Z" fill="#56A7F2"/>
<path d="M80.4337 48.2842L82.6435 46.0745L84.8532 48.2842L82.6435 50.4939L80.4337 48.2842Z" fill="#56A7F2"/>
<path d="M87.5 31.25H90.625V34.375H87.5V31.25Z" fill="#56A7F2"/>
<path d="M80.437 17.3516L82.6468 15.1419L84.8565 17.3516L82.6468 19.5613L80.437 17.3516Z" fill="#56A7F2"/>
</svg>
