<svg width="100" height="100" viewBox="0 0 100 100" fill="none" xmlns="http://www.w3.org/2000/svg">
<path d="M38.3484 31.9043C32.7568 35.5183 29.3304 41.6768 29.2061 48.3326C29.2061 49.2535 29.9522 49.9997 30.8723 49.9997C31.7932 49.9997 32.5394 49.2535 32.5394 48.3326C32.6538 42.8433 35.4706 37.7636 40.0665 34.76C40.8401 34.2785 41.0835 33.2654 40.6143 32.4849C40.1443 31.7051 39.135 31.4457 38.3484 31.9043Z" fill="#56A7F2"/>
<path d="M89.2059 41.6664C85.2478 41.6718 81.8375 44.4565 81.041 48.333H60.704C60.3188 46.508 59.33 44.8662 57.8972 43.6714L63.5284 33.3336H69.3741C70.2301 37.5252 74.1203 40.3877 78.3768 39.9574C82.6332 39.5279 85.8727 35.9444 85.8727 31.6666C85.8727 27.3888 82.6332 23.8052 78.3768 23.3757C74.1203 22.9454 70.2301 25.8087 69.3741 30.0003H64.2059V19.0231L69.8959 13.3331H77.7077C78.5629 17.5247 82.4539 20.388 86.7104 19.9577C90.9668 19.5282 94.2062 15.9447 94.2062 11.6669C94.2062 7.38831 90.9668 3.80554 86.7104 3.37524C82.4539 2.94571 78.5629 5.80826 77.7077 9.99985H69.8959C69.0125 10.0021 68.1656 10.3531 67.5392 10.9764L66.1102 12.4062C64.9391 11.9728 63.7474 11.5982 62.5389 11.2846V3.33328C62.5366 1.49307 61.0458 0.00228883 59.2056 0H45.8725C44.0323 0.00228883 42.5415 1.49307 42.5392 3.33328V11.2831C38.916 12.207 35.4424 13.6421 32.2235 15.5434L26.6327 9.95178C26.0094 9.30939 25.1511 8.94775 24.2554 8.95004H24.2523C23.365 8.94623 22.5136 9.30252 21.8941 9.93805L12.4916 19.339C11.853 19.9615 11.4922 20.8145 11.4891 21.7056C11.4868 22.5975 11.8423 23.4528 12.4771 24.0791L18.0809 29.6837C16.1797 32.9033 14.7453 36.377 13.8199 40.0002H5.87234C4.03214 40.0024 2.54135 41.4932 2.53906 43.3334V56.6666C2.54135 58.5068 4.03214 59.9976 5.87234 59.9998H13.8199C14.7453 63.623 16.1797 67.0967 18.0809 70.3163L12.4916 75.9056C11.853 76.5282 11.4922 77.3811 11.4891 78.2722C11.4868 79.1641 11.8423 80.0194 12.4771 80.645L21.8796 90.0467C22.5014 90.6898 23.3582 91.0522 24.2531 91.05H24.2561C25.145 91.0538 25.9964 90.6975 26.6182 90.062L32.2235 84.4574C35.4424 86.3586 38.916 87.7937 42.5392 88.7177V96.6667C42.5415 98.5069 44.0323 99.9977 45.8725 100H59.2056C61.0458 99.9977 62.5366 98.5069 62.5389 96.6667V88.7154C63.7474 88.4018 64.9391 88.0272 66.1102 87.5938L67.5392 89.0236C68.1656 89.6469 69.0125 89.9979 69.8959 90.0002H77.7077C78.5629 94.1917 82.4539 97.0543 86.7104 96.6248C90.9668 96.1945 94.2062 92.6117 94.2062 88.3331C94.2062 84.0553 90.9668 80.4718 86.7104 80.0423C82.4539 79.612 78.5629 82.4753 77.7077 86.6669H69.8959L64.2059 80.9769V69.9997H69.3741C70.2301 74.1913 74.1203 77.0546 78.3768 76.6243C82.6332 76.1948 85.8727 72.6112 85.8727 68.3334C85.8727 64.0556 82.6332 60.4721 78.3768 60.0426C74.1203 59.6123 70.2301 62.4748 69.3741 66.6664H63.5284L57.8972 56.3286C59.33 55.1338 60.3188 53.492 60.704 51.667H81.041C81.9183 55.9631 85.9749 58.8455 90.3214 58.2581C94.6671 57.6714 97.8149 53.8162 97.5204 49.4408C97.226 45.0653 93.5913 41.6664 89.2059 41.6664V41.6664ZM85.8727 6.66656C88.6337 6.66656 90.8722 8.90503 90.8722 11.6669C90.8722 14.4279 88.6337 16.6664 85.8727 16.6664C83.1108 16.6664 80.8723 14.4279 80.8723 11.6669C80.8754 8.90655 83.1123 6.66962 85.8727 6.66656ZM85.8727 83.3336C88.6337 83.3336 90.8722 85.5721 90.8722 88.3331C90.8722 91.095 88.6337 93.3334 85.8727 93.3334C83.1108 93.3334 80.8723 91.095 80.8723 88.3331C80.8754 85.5728 83.1123 83.3366 85.8727 83.3336V83.3336ZM52.5391 55.0003C49.778 55.0003 47.5388 52.7611 47.5388 50C47.5388 47.2389 49.778 44.9997 52.5391 44.9997C55.3001 44.9997 57.5394 47.2389 57.5394 50C57.5363 52.7603 55.2994 54.9973 52.5391 55.0003V55.0003ZM77.5391 26.667C80.3001 26.667 82.5394 28.9055 82.5394 31.6666C82.5394 34.4284 80.3001 36.6669 77.5391 36.6669C74.778 36.6669 72.5388 34.4284 72.5388 31.6666C72.5418 28.9063 74.7787 26.6701 77.5391 26.667ZM60.511 85.7735C59.7481 85.9421 59.2056 86.6188 59.2056 87.4001V96.6667H45.8725V87.4001C45.8725 86.6165 45.327 85.939 44.5625 85.7719C40.4099 84.8618 36.451 83.2275 32.8659 80.9433C32.2067 80.5267 31.3469 80.6213 30.7945 81.1722L24.2516 87.7052L14.8346 78.2784L21.3676 71.7453C21.92 71.1929 22.0146 70.3316 21.5958 69.6732C19.3123 66.0881 17.6773 62.1284 16.7664 57.9773C16.5993 57.2121 15.9218 56.6673 15.139 56.6666H5.87234V43.3334H15.139C15.9218 43.3334 16.5993 42.7879 16.7664 42.0235C17.6773 37.8716 19.3123 33.9119 21.5958 30.3268C22.0146 29.6684 21.92 28.8071 21.3676 28.2555L14.8346 21.7117L24.2615 12.2948L30.7945 18.8278C31.3469 19.3802 32.2083 19.4756 32.8667 19.0567C36.4517 16.7725 40.4106 15.1382 44.5625 14.2288C45.3278 14.061 45.8725 13.3827 45.8725 12.5999V3.33328H59.2056V12.5999C59.2056 13.3812 59.7481 14.0579 60.511 14.2265C61.5417 14.4562 62.5328 14.727 63.4911 15.0246L61.8492 16.6664C61.2213 17.2905 60.8704 18.1389 60.8727 19.0231V21.183C48.6168 17.6353 35.4584 22.2267 28.0708 32.6294C20.6825 43.0313 20.6825 56.9687 28.0708 67.3706C35.4584 77.7733 48.6168 82.3647 60.8727 78.817V80.9769C60.8704 81.8611 61.2221 82.7095 61.8492 83.3336L63.4911 84.9747C62.5328 85.2737 61.5417 85.5438 60.511 85.7735V85.7735ZM77.5391 63.3331C80.3001 63.3331 82.5394 65.5716 82.5394 68.3334C82.5394 71.0945 80.3001 73.333 77.5391 73.333C74.778 73.333 72.5388 71.0945 72.5388 68.3334C72.5418 65.5731 74.7787 63.3362 77.5391 63.3331V63.3331ZM60.8727 68.7576V75.3113C49.8695 78.9597 37.7693 75.0824 30.9372 65.7173C24.1043 56.353 24.1043 43.647 30.9372 34.2827C37.7693 24.9176 49.8695 21.0403 60.8727 24.6887V31.2424L54.9736 42.0715C54.187 41.8152 53.3661 41.6786 52.5391 41.6664C47.937 41.6664 44.2055 45.3979 44.2055 50C44.2055 54.6021 47.937 58.3336 52.5391 58.3336C53.3661 58.3214 54.187 58.1848 54.9736 57.9285L60.8727 68.7576ZM89.2059 55.0003C86.4441 55.0003 84.2056 52.7611 84.2056 50C84.2056 47.2389 86.4441 44.9997 89.2059 44.9997C91.967 44.9997 94.2055 47.2389 94.2055 50C94.2024 52.7603 91.9662 54.9973 89.2059 55.0003Z" fill="#56A7F2"/>
</svg>
