<svg width="19" height="17" viewBox="0 0 19 17" fill="none" xmlns="http://www.w3.org/2000/svg">
<g clip-path="url(#clip0)">
<path d="M15.0161 10.531C14.6271 10.1686 14.1579 9.97484 13.6607 9.97484C13.1674 9.97484 12.6942 10.165 12.2892 10.5274L11.022 11.6576C10.9178 11.6074 10.8135 11.5607 10.7133 11.5141C10.5689 11.4495 10.4326 11.3885 10.3163 11.3239C9.12929 10.6494 8.05058 9.77033 7.01598 8.63294C6.51472 8.06604 6.17787 7.58884 5.93325 7.10447C6.26208 6.83537 6.56685 6.55551 6.86359 6.28641C6.97588 6.18595 7.08816 6.0819 7.20044 5.98144C8.04256 5.22796 8.04256 4.25204 7.20044 3.49856L6.10569 2.51905C5.98138 2.40782 5.85305 2.29301 5.73275 2.17819C5.49215 1.95574 5.23951 1.72611 4.97886 1.51083C4.58988 1.16638 4.12471 0.983398 3.63548 0.983398C3.14625 0.983398 2.67306 1.16638 2.27205 1.51083C2.26804 1.51442 2.26804 1.51442 2.26403 1.51801L0.900604 2.74868C0.387314 3.20794 0.0945782 3.76766 0.0304169 4.41708C-0.065825 5.46477 0.279042 6.4407 0.543707 7.07935C1.19334 8.64729 2.16378 10.1004 3.61142 11.6576C5.36783 13.5341 7.48115 15.0159 9.89521 16.06C10.8175 16.4511 12.0486 16.914 13.4241 16.9929C13.5083 16.9965 13.5965 17.0001 13.6767 17.0001C14.603 17.0001 15.381 16.7023 15.9905 16.1103C15.9945 16.1031 16.0026 16.0995 16.0066 16.0923C16.2151 15.8663 16.4557 15.6618 16.7083 15.4429C16.8808 15.2958 17.0572 15.1415 17.2297 14.9801C17.6266 14.6105 17.8352 14.1799 17.8352 13.7386C17.8352 13.2937 17.6226 12.8667 17.2176 12.5079L15.0161 10.531ZM16.4517 14.3091C16.4477 14.3091 16.4477 14.3127 16.4517 14.3091C16.2953 14.4598 16.1349 14.5961 15.9625 14.7468C15.7018 14.9693 15.4371 15.2025 15.1885 15.4644C14.7835 15.8519 14.3063 16.0349 13.6807 16.0349C13.6206 16.0349 13.5564 16.0349 13.4963 16.0313C12.3053 15.9632 11.1985 15.547 10.3684 15.1917C8.0987 14.2086 6.10569 12.8129 4.44953 11.0441C3.08209 9.5694 2.16779 8.20597 1.56227 6.74208C1.18933 5.84868 1.05299 5.15262 1.11314 4.49602C1.15324 4.07623 1.33369 3.72819 1.66653 3.43039L3.03397 2.20689C3.23046 2.04185 3.43899 1.95215 3.6435 1.95215C3.89613 1.95215 4.10065 2.08849 4.22897 2.20331C4.23298 2.20689 4.23699 2.21048 4.241 2.21407C4.48562 2.41859 4.7182 2.63028 4.96282 2.85632C5.08713 2.97113 5.21545 3.08595 5.34377 3.20435L6.43853 4.18386C6.86359 4.56419 6.86359 4.91581 6.43853 5.29613C6.32223 5.40019 6.20995 5.50424 6.09366 5.6047C5.75681 5.91326 5.43601 6.2003 5.08713 6.48016C5.07911 6.48734 5.07109 6.49093 5.06708 6.4981C4.72221 6.80667 4.78637 7.10806 4.85855 7.31257C4.86256 7.32333 4.86657 7.3341 4.87058 7.34486C5.1553 7.96199 5.55631 8.54324 6.16584 9.23572L6.16985 9.23931C7.27663 10.4592 8.44357 11.41 9.7308 12.1384C9.89521 12.2317 10.0636 12.307 10.224 12.3788C10.3684 12.4434 10.5047 12.5044 10.621 12.5689C10.6371 12.5761 10.6531 12.5869 10.6692 12.5941C10.8055 12.6551 10.9338 12.6838 11.0662 12.6838C11.399 12.6838 11.6075 12.4972 11.6757 12.4362L13.0471 11.2091C13.1835 11.0871 13.4 10.94 13.6527 10.94C13.9013 10.94 14.1058 11.0799 14.2301 11.2019C14.2341 11.2055 14.2341 11.2055 14.2381 11.2091L16.4477 13.1861C16.8607 13.552 16.8607 13.9288 16.4517 14.3091Z" fill="#7AB1FF"/>
<path d="M10.268 4.04365C11.3186 4.20152 12.273 4.64643 13.0349 5.32814C13.7969 6.00985 14.2901 6.86379 14.4706 7.80384C14.5147 8.04064 14.7432 8.20569 15.0039 8.20569C15.036 8.20569 15.064 8.2021 15.0961 8.19851C15.3929 8.15546 15.5894 7.9043 15.5412 7.63879C15.3247 6.5014 14.7232 5.46448 13.8049 4.64284C12.8866 3.82119 11.7277 3.283 10.4565 3.08925C10.1597 3.04619 9.88303 3.222 9.8309 3.48392C9.77877 3.74585 9.97125 4.00059 10.268 4.04365Z" fill="#7AB1FF"/>
<path d="M18.978 7.4993C18.6211 5.62638 17.6347 3.9221 16.1189 2.56585C14.603 1.2096 12.6983 0.326958 10.605 0.00762871C10.3123 -0.0390149 10.0356 0.140383 9.98344 0.402305C9.93532 0.667815 10.1318 0.915384 10.4286 0.962028C12.2973 1.24548 14.0015 2.03842 15.3569 3.24756C16.7123 4.46029 17.5946 5.98518 17.9114 7.65717C17.9555 7.89398 18.184 8.05903 18.4447 8.05903C18.4768 8.05903 18.5049 8.05544 18.5369 8.05185C18.8297 8.01238 19.0302 7.76122 18.978 7.4993Z" fill="#7AB1FF"/>
</g>
<defs>
<clipPath id="clip0">
<rect width="19" height="17" fill="white"/>
</clipPath>
</defs>
</svg>
