<svg width="100" height="100" viewBox="0 0 100 100" fill="none" xmlns="http://www.w3.org/2000/svg">
<path d="M18.2922 46.2601C17.8452 45.813 17.1738 45.6772 16.5894 45.9213C16.0049 46.1624 15.625 46.7331 15.625 47.3648V82.8125C15.625 83.6761 16.3239 84.375 17.1875 84.375H52.6352C53.2669 84.375 53.8376 83.9951 54.0787 83.4106C54.3213 82.8262 54.187 82.1548 53.7399 81.7078L18.2922 46.2601ZM18.75 51.1368L28.125 60.5118V81.25H18.75V51.1368ZM31.25 81.25V63.6368L48.8632 81.25H31.25Z" fill="#56A7F2"/>
<path d="M85.4797 3.58277C85.1868 3.2898 84.79 3.125 84.375 3.125H29.6875C28.8239 3.125 28.125 3.82386 28.125 4.6875V38.4155L5.79223 16.0828C5.34516 15.6357 4.67377 15.5014 4.08936 15.744C3.50494 15.9851 3.125 16.5558 3.125 17.1875V95.3125C3.125 96.1761 3.82386 96.875 4.6875 96.875H82.8125C83.4442 96.875 84.0149 96.4951 84.256 95.9106C84.4986 95.3262 84.3643 94.6548 83.9172 94.2078L74.0845 84.375H79.6875H95.3125C96.1761 84.375 96.875 83.6761 96.875 82.8125V28.125V15.625C96.875 15.21 96.7102 14.8132 96.4172 14.5203L85.4797 3.58277ZM6.25 93.75V20.9595L13.4155 28.125L11.3953 30.1453L13.6047 32.3547L15.625 30.3345L18.103 32.8125L16.0828 34.8328L18.2922 37.0422L20.3125 35.022L22.7905 37.5L20.7703 39.5203L22.9797 41.7297L25 39.7095L27.478 42.1875L25.4578 44.2078L27.6672 46.4172L29.6875 44.397L32.1655 46.875L30.1453 48.8953L32.3547 51.1047L34.375 49.0845L36.853 51.5625L34.8328 53.5828L37.0422 55.7922L39.0625 53.772L41.5405 56.25L39.5203 58.2703L41.7297 60.4797L43.75 58.4595L46.228 60.9375L44.2078 62.9578L46.4172 65.1672L48.4375 63.147L50.9155 65.625L48.8953 67.6453L51.1047 69.8547L53.125 67.8345L55.603 70.3125L53.5828 72.3328L55.7922 74.5422L57.8125 72.522L60.2905 75L58.2703 77.0203L60.4797 79.2297L62.5 77.2095L64.978 79.6875L62.9578 81.7078L65.1672 83.9172L67.1875 81.897L69.6655 84.375L67.6453 86.3953L69.8547 88.6047L71.875 86.5845L79.0405 93.75H6.25ZM39.0625 23.4375H45.3125V55.603L39.0625 49.353V23.4375ZM40.0284 20.3125L42.1875 15.9943L44.3466 20.3125H40.0284ZM59.4009 51.7395L62.0636 43.75H66.0614L68.724 51.7395L66.2418 76.5324L61.3903 71.6808L59.4009 51.7395ZM65.625 34.375V27.3232L70.0424 34.3918L66.3028 40.625H61.8222L58.0826 34.3918L62.5 27.3232V34.375H65.625ZM69.0968 79.3874L71.8674 51.7181C71.8887 51.4984 71.8643 51.2772 71.7941 51.0681L68.8967 42.3758L73.2147 35.1791C73.5168 34.6756 73.5107 34.0454 73.1994 33.5464L65.3869 21.0464C64.8163 20.134 63.3087 20.134 62.738 21.0464L54.9255 33.5464C54.6142 34.0454 54.6081 34.6756 54.9102 35.1791L59.2283 42.3758L56.3308 51.0681C56.2607 51.2772 56.2362 51.4984 56.2576 51.7181L57.9013 68.1919L48.4375 58.728V21.875C48.4375 21.6324 48.381 21.3928 48.2727 21.1761L43.5852 11.8011C43.0542 10.7422 41.3208 10.7422 40.7898 11.8011L36.1023 21.1761C35.994 21.3928 35.9375 21.6324 35.9375 21.875V46.228L31.25 41.5405V6.25H83.728L91.5405 14.0625H85.9375V10.9375H82.8125V15.625C82.8125 16.4886 83.5114 17.1875 84.375 17.1875H93.75V26.5625H79.6875C78.8239 26.5625 78.125 27.2614 78.125 28.125V81.25H70.9595L69.0968 79.3874ZM81.25 81.25V29.6875H93.75V34.375H90.625V37.5H93.75V42.1875H90.625V45.3125H93.75V50H90.625V53.125H93.75V57.8125H90.625V60.9375H93.75V65.625H90.625V68.75H93.75V73.4375H90.625V76.5625H93.75V81.25H81.25Z" fill="#56A7F2"/>
<path d="M9.375 87.5H12.5V90.625H9.375V87.5Z" fill="#56A7F2"/>
<path d="M15.625 87.5H18.75V90.625H15.625V87.5Z" fill="#56A7F2"/>
<path d="M21.875 87.5H25V90.625H21.875V87.5Z" fill="#56A7F2"/>
</svg>
