<svg width="40" height="40" viewBox="0 0 40 40" fill="none" xmlns="http://www.w3.org/2000/svg">
<path d="M20 40C31.0457 40 40 31.0457 40 20C40 8.9543 31.0457 0 20 0C8.9543 0 0 8.9543 0 20C0 31.0457 8.9543 40 20 40Z" fill="#039BE5"/>
<path d="M9.15162 19.5668L28.435 12.1318C29.33 11.8084 30.1116 12.3501 29.8216 13.7034L29.8233 13.7018L26.5399 29.1701C26.2966 30.2668 25.6449 30.5334 24.7333 30.0168L19.7333 26.3318L17.3216 28.6551C17.0549 28.9218 16.8299 29.1468 16.3133 29.1468L16.6683 24.0584L25.9349 15.6868C26.3383 15.3318 25.8449 15.1318 25.3133 15.4851L13.8616 22.6951L8.92495 21.1551C7.85328 20.8151 7.82995 20.0834 9.15162 19.5668V19.5668Z" fill="white"/>
</svg>
