<svg width="40" height="40" viewBox="0 0 40 40" fill="none" xmlns="http://www.w3.org/2000/svg">
<path d="M20 40C31.0457 40 40 31.0457 40 20C40 8.9543 31.0457 0 20 0C8.9543 0 0 8.9543 0 20C0 31.0457 8.9543 40 20 40Z" fill="#6F3FAA"/>
<path d="M28.6767 10.9723C23.8086 9.79654 18.9318 8.42123 13.9394 10.1686C10.7071 11.3807 10.7071 14.8824 10.8418 17.8454C10.8418 18.6534 9.89905 19.7309 10.303 20.6737C11.1111 23.3672 11.7845 26.0608 14.6128 27.4076C15.0169 27.677 14.6128 28.2157 14.8822 28.6197C14.7475 28.6197 14.4781 28.7544 14.4781 28.8891C14.4781 29.5347 14.7678 30.5221 14.5754 31.1587L23.1696 39.7493C32.0047 38.3422 38.9101 31.1502 39.8816 22.1773L28.6767 10.9723Z" fill="#512D84"/>
<path d="M30.5803 14.0566L30.5737 14.0302C30.0393 11.8698 27.6301 9.55166 25.4176 9.06939L25.3927 9.06424C21.8141 8.38158 18.1856 8.38158 14.6078 9.06424L14.5821 9.06939C12.3703 9.55166 9.96105 11.8699 9.42597 14.0302L9.42003 14.0566C8.7594 17.0735 8.7594 20.1332 9.42003 23.1502L9.42597 23.1766C9.93831 25.2447 12.1681 27.4564 14.298 28.0646V30.4762C14.298 31.3491 15.3617 31.7778 15.9665 31.1478L18.4099 28.6081C18.9399 28.6377 19.4701 28.6542 20.0002 28.6542C21.8015 28.6542 23.6037 28.4838 25.3926 28.1426L25.4175 28.1374C27.63 27.6552 30.0392 25.3369 30.5736 23.1767L30.5802 23.1503C31.2408 20.1332 31.2408 17.0737 30.5803 14.0566ZM28.6466 22.7128C28.2898 24.1222 26.4606 25.8744 25.0071 26.1981C23.1044 26.56 21.1865 26.7146 19.2706 26.6616C19.2325 26.6605 19.1958 26.6753 19.1693 26.7027C18.8974 26.9817 17.3853 28.5341 17.3853 28.5341L15.4878 30.4816C15.3491 30.6263 15.1053 30.5278 15.1053 30.3281V26.3331C15.1053 26.2671 15.0582 26.2111 14.9934 26.1983C14.993 26.1981 14.9927 26.1981 14.9923 26.1981C13.5389 25.8743 11.7103 24.1221 11.3528 22.7127C10.7582 19.9856 10.7582 17.2211 11.3528 14.4941C11.7103 13.0846 13.5389 11.3324 14.9923 11.0087C18.3154 10.3767 21.6848 10.3767 25.0072 11.0087C26.4614 11.3324 28.2899 13.0846 28.6467 14.4941C29.2419 17.2212 29.2419 19.9857 28.6466 22.7128Z" fill="white"/>
<path d="M23.1618 24.557C22.9383 24.4891 22.7254 24.4435 22.5275 24.3616C20.4782 23.5113 18.5923 22.4145 17.0985 20.7331C16.249 19.777 15.584 18.6976 15.022 17.5552C14.7554 17.0135 14.5308 16.4506 14.3018 15.8913C14.0931 15.3813 14.4006 14.8544 14.7243 14.47C15.0282 14.1093 15.4192 13.8334 15.8426 13.6299C16.1731 13.4711 16.499 13.5627 16.7404 13.8427C17.2622 14.4484 17.7415 15.0849 18.1295 15.787C18.3682 16.2188 18.3027 16.7466 17.8701 17.0404C17.765 17.1118 17.6692 17.1957 17.5713 17.2763C17.4854 17.347 17.4046 17.4184 17.3457 17.5141C17.2381 17.6892 17.2329 17.8959 17.3022 18.0863C17.8355 19.552 18.7345 20.6918 20.2099 21.3058C20.446 21.404 20.683 21.5183 20.955 21.4866C21.4105 21.4334 21.558 20.9338 21.8772 20.6727C22.1892 20.4177 22.5879 20.4143 22.924 20.627C23.2601 20.8398 23.5859 21.0681 23.9098 21.2989C24.2278 21.5255 24.5443 21.747 24.8375 22.0053C25.1195 22.2537 25.2166 22.5795 25.0578 22.9164C24.7672 23.5337 24.3441 24.047 23.734 24.3749C23.5618 24.4672 23.356 24.4971 23.1618 24.557C23.356 24.4971 22.9383 24.4891 23.1618 24.557Z" fill="white"/>
<path d="M20.0058 12.9239C22.6862 12.9991 24.8878 14.7779 25.3596 17.4279C25.44 17.8795 25.4686 18.341 25.5044 18.7994C25.5194 18.9921 25.4102 19.1752 25.2023 19.1778C24.9874 19.1804 24.8908 19.0006 24.8767 18.808C24.8491 18.4266 24.83 18.0434 24.7774 17.6652C24.5 15.6684 22.9078 14.0165 20.9203 13.662C20.6212 13.6087 20.3152 13.5947 20.0122 13.5629C19.8207 13.5428 19.5699 13.5313 19.5275 13.2931C19.4919 13.0935 19.6604 12.9346 19.8504 12.9244C19.9019 12.9213 19.9539 12.9238 20.0058 12.9239C19.9539 12.9238 22.6863 12.9991 20.0058 12.9239Z" fill="white"/>
<path d="M24.0793 18.2046C24.0748 18.2382 24.0726 18.3168 24.0529 18.3909C23.9818 18.66 23.5736 18.6936 23.4798 18.4221C23.4519 18.3416 23.4478 18.2499 23.4476 18.1632C23.4467 17.5955 23.3233 17.0283 23.037 16.5343C22.7427 16.0266 22.293 15.6 21.7658 15.3416C21.4469 15.1855 21.1021 15.0884 20.7526 15.0307C20.5998 15.0053 20.4454 14.9901 20.2919 14.9687C20.1059 14.9428 20.0065 14.8243 20.0154 14.641C20.0236 14.4693 20.1492 14.3457 20.3364 14.3564C20.9515 14.3912 21.5457 14.5243 22.0926 14.8139C23.2047 15.4028 23.84 16.3324 24.0254 17.5737C24.0338 17.63 24.0472 17.6857 24.0515 17.7421C24.062 17.8813 24.0687 18.0207 24.0793 18.2046C24.0687 18.0207 24.0748 18.238 24.0793 18.2046Z" fill="white"/>
<path d="M22.4118 18.1397C22.1876 18.1437 22.0676 18.0195 22.0444 17.814C22.0284 17.6708 22.0156 17.5254 21.9814 17.3859C21.914 17.1112 21.768 16.8566 21.5369 16.6883C21.4279 16.6088 21.3042 16.5509 21.1747 16.5134C21.0103 16.4658 20.8393 16.479 20.6753 16.4388C20.4971 16.3951 20.3986 16.2508 20.4266 16.0837C20.4521 15.9315 20.6 15.8127 20.7664 15.8248C21.8056 15.8998 22.5483 16.4371 22.6543 17.6605C22.6619 17.7469 22.6707 17.838 22.6515 17.9208C22.6186 18.0619 22.5139 18.1328 22.4118 18.1397C22.5139 18.1328 22.1875 18.1437 22.4118 18.1397Z" fill="white"/>
<path d="M30.5804 14.0566L30.5738 14.0302C30.2743 12.8191 29.3854 11.5587 28.2724 10.5996L26.7678 11.933C27.6625 12.6459 28.4291 13.6335 28.6469 14.494C29.2422 17.2211 29.2422 19.9855 28.6469 22.7127C28.2901 24.1222 26.4608 25.8744 25.0074 26.1981C23.1047 26.56 21.1868 26.7146 19.2708 26.6616C19.2327 26.6605 19.1961 26.6753 19.1696 26.7027C18.8976 26.9817 17.3856 28.5341 17.3856 28.5341L15.4881 30.4816C15.3494 30.6262 15.1056 30.5279 15.1056 30.3281V26.3331C15.1056 26.2671 15.0585 26.2111 14.9937 26.1983C14.9933 26.1983 14.993 26.1981 14.9926 26.1981C14.1666 26.0141 13.2198 25.3686 12.4904 24.5871L11.0037 25.9045C11.9322 26.9146 13.1298 27.7312 14.298 28.0648V30.4763C14.298 31.3492 15.3617 31.7779 15.9666 31.148L18.4099 28.6082C18.9399 28.6378 19.47 28.6544 20.0002 28.6544C21.8016 28.6544 23.6037 28.484 25.3926 28.1427L25.4176 28.1377C27.6301 27.6554 30.0393 25.3373 30.5737 23.1769L30.5802 23.1505C31.2409 20.1332 31.2409 17.0737 30.5804 14.0566Z" fill="#D1D1D1"/>
<path d="M23.1617 24.5567C23.356 24.4969 22.9383 24.4888 23.1617 24.5567V24.5567Z" fill="white"/>
<path d="M24.8377 22.0052C24.5445 21.747 24.2278 21.5253 23.91 21.2988C23.5861 21.0679 23.2603 20.8396 22.9242 20.6268C22.5882 20.4142 22.1895 20.4175 21.8774 20.6726C21.5582 20.9336 21.4108 21.4333 20.9553 21.4865C20.6833 21.5181 20.4462 21.4038 20.2101 21.3056C19.3024 20.928 18.6136 20.3505 18.0931 19.6213L16.9868 20.6018C17.0244 20.6453 17.0603 20.69 17.0985 20.733C18.5924 22.4143 20.4784 23.5112 22.5275 24.3614C22.7253 24.4434 22.9383 24.4891 23.1617 24.5568C22.9383 24.4889 23.3561 24.497 23.1617 24.5568C23.3561 24.497 23.5617 24.467 23.7342 24.3746C24.3444 24.0468 24.7673 23.5334 25.0579 22.9162C25.2168 22.5793 25.1197 22.2535 24.8377 22.0052Z" fill="#D1D1D1"/>
<path d="M20.0126 12.9241C20.0103 12.9241 20.0081 12.9239 20.0059 12.9239C20.0037 12.9237 20.0065 12.9239 20.0126 12.9241Z" fill="white"/>
<path d="M20.0059 12.9238C20.0081 12.9238 20.0103 12.9241 20.0126 12.9241C20.1613 12.9294 22.5807 12.996 20.0059 12.9238Z" fill="white"/>
<path d="M23.8503 14.5186L23.3787 14.9366C24.1198 15.6577 24.6309 16.6134 24.777 17.6651C24.8295 18.0434 24.8488 18.4264 24.8764 18.8079C24.8904 19.0006 24.9869 19.1804 25.2019 19.1779C25.41 19.1753 25.5191 18.9922 25.5041 18.7994C25.4682 18.3411 25.4397 17.8794 25.3593 17.4279C25.1528 16.2679 24.6148 15.2749 23.8503 14.5186Z" fill="#D1D1D1"/>
<path d="M24.025 17.5734C23.89 16.6689 23.5147 15.9308 22.8915 15.3684L22.4211 15.7852C22.6643 16.0011 22.8747 16.2546 23.0368 16.5342C23.3231 17.0282 23.4465 17.5954 23.4474 18.163C23.4475 18.2497 23.4517 18.3415 23.4796 18.4222C23.5736 18.6938 23.9815 18.6601 24.0526 18.3909C24.0723 18.3167 24.0746 18.238 24.079 18.2047C24.0746 18.2382 24.0683 18.0208 24.079 18.2047C24.0683 18.0208 24.0617 17.8813 24.0511 17.7419C24.047 17.6853 24.0335 17.6297 24.025 17.5734Z" fill="#D1D1D1"/>
<path d="M24.0789 18.2044C24.0683 18.0205 24.0744 18.2378 24.0789 18.2044V18.2044Z" fill="white"/>
<path d="M22.4117 18.1394C22.4152 18.1391 22.4186 18.1374 22.422 18.137C22.4125 18.137 22.398 18.1372 22.3831 18.1377C22.3927 18.138 22.4016 18.1395 22.4117 18.1394Z" fill="white"/>
<path d="M22.4118 18.1396C22.4017 18.1397 22.3928 18.1383 22.3831 18.1379C22.3346 18.1393 22.2845 18.1418 22.4118 18.1396Z" fill="white"/>
<path d="M22.4221 18.137C22.4186 18.1374 22.4152 18.1392 22.4119 18.1394C22.4381 18.1376 22.4358 18.137 22.4221 18.137Z" fill="white"/>
<path d="M21.9385 16.2129L21.4597 16.6373C21.4861 16.6533 21.512 16.67 21.5371 16.6882C21.7682 16.8566 21.9142 17.1111 21.9815 17.3859C22.0157 17.5254 22.0284 17.6705 22.0446 17.814C22.0667 18.0103 22.1782 18.131 22.3833 18.138C22.3982 18.1377 22.4129 18.1373 22.4222 18.1373C22.521 18.1263 22.62 18.0571 22.6516 17.9205C22.6707 17.838 22.662 17.7466 22.6544 17.6603C22.5949 16.9763 22.3363 16.507 21.9385 16.2129Z" fill="#D1D1D1"/>
</svg>
