<svg width="40" height="40" viewBox="0 0 40 40" fill="none" xmlns="http://www.w3.org/2000/svg">
<path d="M20.005 0H19.995C8.9675 0 0 8.97 0 20C0 24.375 1.41 28.43 3.8075 31.7225L1.315 39.1525L9.0025 36.695C12.165 38.79 15.9375 40 20.005 40C31.0325 40 40 31.0275 40 20C40 8.9725 31.0325 0 20.005 0Z" fill="#4CAF50"/>
<path d="M31.6426 28.2425C31.1601 29.605 29.2451 30.735 27.7176 31.065C26.6726 31.2875 25.3076 31.465 20.7126 29.56C14.8351 27.125 11.0501 21.1525 10.7551 20.765C10.4726 20.3775 8.38013 17.6025 8.38013 14.7325C8.38013 11.8625 9.83763 10.465 10.4251 9.86496C10.9076 9.37246 11.7051 9.14746 12.4701 9.14746C12.7176 9.14746 12.9401 9.15996 13.1401 9.16996C13.7276 9.19496 14.0226 9.22996 14.4101 10.1575C14.8926 11.32 16.0676 14.19 16.2076 14.485C16.3501 14.78 16.4926 15.18 16.2926 15.5675C16.1051 15.9675 15.9401 16.145 15.6451 16.485C15.3501 16.825 15.0701 17.085 14.7751 17.45C14.5051 17.7675 14.2001 18.1075 14.5401 18.695C14.8801 19.27 16.0551 21.1875 17.7851 22.7275C20.0176 24.715 21.8276 25.35 22.4751 25.62C22.9576 25.82 23.5326 25.7725 23.8851 25.3975C24.3326 24.915 24.8851 24.115 25.4476 23.3275C25.8476 22.7625 26.3526 22.6925 26.8826 22.8925C27.4226 23.08 30.2801 24.4925 30.8676 24.785C31.4551 25.08 31.8426 25.22 31.9851 25.4675C32.1251 25.715 32.1251 26.8775 31.6426 28.2425Z" fill="#FAFAFA"/>
</svg>
