<svg width="512" height="512" viewBox="0 0 512 512" fill="none" xmlns="http://www.w3.org/2000/svg">
<path d="M489.32 320.112L457.64 314.832C456.294 310.999 454.743 307.242 452.992 303.576L471.648 277.456C472.748 275.915 473.265 274.034 473.108 272.147C472.952 270.26 472.131 268.491 470.792 267.152L436.848 233.208C435.509 231.869 433.74 231.048 431.853 230.892C429.966 230.735 428.085 231.252 426.544 232.352L400.424 251.008C398.024 249.872 395.552 248.952 393.08 247.976L393.944 247.76C395.674 247.327 397.21 246.328 398.307 244.922C399.404 243.516 400 241.783 400 240V176C400 174.216 399.402 172.482 398.304 171.076C397.205 169.67 395.667 168.672 393.936 168.24L343.864 155.76C343.221 155.587 342.63 155.261 342.141 154.809C341.652 154.358 341.28 153.795 341.056 153.168C340.984 152.992 340.912 152.824 340.832 152.648C340.582 152.037 340.468 151.379 340.5 150.72C340.532 150.06 340.708 149.416 341.016 148.832L367.576 104.6C368.495 103.07 368.876 101.277 368.659 99.5054C368.441 97.734 367.638 96.0862 366.376 94.824L321.176 49.6C319.914 48.3382 318.266 47.5346 316.495 47.3172C314.723 47.0997 312.93 47.4809 311.4 48.4L267.264 74.92C266.671 75.2491 266.013 75.442 265.336 75.4849C264.659 75.5278 263.982 75.4196 263.352 75.168L262.832 74.944C262.207 74.7191 261.646 74.3473 261.195 73.8601C260.743 73.3728 260.416 72.7842 260.24 72.144L247.76 22.064C247.328 20.3325 246.33 18.7952 244.924 17.6964C243.518 16.5976 241.784 16.0005 240 16H176C174.216 16.0005 172.482 16.5976 171.076 17.6964C169.67 18.7952 168.672 20.3325 168.24 22.064L155.76 72.136C155.587 72.7786 155.261 73.3697 154.809 73.8587C154.358 74.3477 153.795 74.7201 153.168 74.944L152.648 75.168C152.038 75.4205 151.379 75.535 150.719 75.5032C150.06 75.4713 149.415 75.2941 148.832 74.984L104.6 48.424C103.07 47.5049 101.277 47.1237 99.5054 47.3412C97.734 47.5586 96.0862 48.3622 94.824 49.624L49.6 94.824C48.3382 96.0862 47.5346 97.734 47.3172 99.5054C47.0997 101.277 47.4809 103.07 48.4 104.6L74.896 148.736C75.2272 149.328 75.4215 149.987 75.4644 150.664C75.5073 151.341 75.3978 152.019 75.144 152.648C75.064 152.824 74.992 152.992 74.92 153.168C74.6963 153.793 74.3249 154.356 73.8374 154.807C73.35 155.258 72.7608 155.585 72.12 155.76L22.04 168.24C20.313 168.676 18.781 169.677 17.6869 171.082C16.5928 172.488 15.9992 174.219 16 176V240C16.0005 241.784 16.5976 243.518 17.6964 244.924C18.7952 246.33 20.3325 247.328 22.064 247.76L72.136 260.24C72.778 260.414 73.3685 260.741 73.8573 261.192C74.3461 261.643 74.7189 262.206 74.944 262.832C75.016 263.008 75.088 263.176 75.168 263.352C75.4182 263.961 75.5314 264.618 75.4996 265.276C75.4678 265.934 75.2918 266.578 74.984 267.16L48.424 311.32C47.5049 312.85 47.1237 314.643 47.3412 316.415C47.5586 318.186 48.3622 319.834 49.624 321.096L94.824 366.368C96.0852 367.631 97.7326 368.436 99.504 368.655C101.276 368.874 103.069 368.494 104.6 367.576L148.736 341.08C149.327 340.745 149.986 340.548 150.663 340.505C151.341 340.462 152.02 340.574 152.648 340.832L153.168 341.056C153.793 341.28 154.356 341.651 154.807 342.139C155.258 342.626 155.585 343.215 155.76 343.856L168.24 393.936C168.672 395.667 169.67 397.205 171.076 398.304C172.482 399.402 174.216 400 176 400H240C241.783 400 243.516 399.404 244.922 398.307C246.328 397.21 247.327 395.674 247.76 393.944L248 393.08C248.976 395.552 249.896 398.048 251.032 400.424L232.376 426.544C231.276 428.085 230.759 429.966 230.916 431.853C231.072 433.74 231.893 435.509 233.232 436.848L267.176 470.792C268.515 472.131 270.284 472.952 272.171 473.108C274.058 473.265 275.939 472.748 277.48 471.648L303.6 452.992C307.266 454.743 311.023 456.294 314.856 457.64L320.136 489.32C320.448 491.182 321.408 492.875 322.847 494.097C324.286 495.32 326.112 495.994 328 496H376C377.892 495.999 379.723 495.328 381.168 494.105C382.612 492.882 383.576 491.187 383.888 489.32L389.168 457.64C393.001 456.294 396.758 454.743 400.424 452.992L426.544 471.648C428.085 472.748 429.966 473.265 431.853 473.108C433.74 472.952 435.509 472.131 436.848 470.792L470.792 436.848C472.131 435.509 472.952 433.74 473.108 431.853C473.265 429.966 472.748 428.085 471.648 426.544L452.992 400.424C454.743 396.758 456.294 393.001 457.64 389.168L489.32 383.888C491.187 383.576 492.882 382.612 494.105 381.168C495.328 379.723 495.999 377.892 496 376V328C495.999 326.108 495.328 324.277 494.105 322.832C492.882 321.388 491.187 320.424 489.32 320.112V320.112ZM171.28 340C170.495 336.935 168.999 334.097 166.915 331.717C164.83 329.336 162.215 327.479 159.28 326.296C159.16 326.248 159.048 326.192 158.928 326.152C155.981 324.901 152.783 324.356 149.589 324.56C146.394 324.764 143.291 325.712 140.528 327.328L101.648 350.664L65.352 314.208L88.8 275.304C90.3883 272.551 91.3155 269.467 91.5084 266.295C91.7014 263.123 91.1549 259.949 89.912 257.024V257.024C89.872 256.904 89.816 256.792 89.768 256.672C88.5723 253.739 86.7029 251.129 84.311 249.052C81.9191 246.976 79.072 245.492 76 244.72L32 233.752V182.248L76 171.28C79.0652 170.495 81.9027 168.999 84.2833 166.915C86.6639 164.83 88.5208 162.215 89.704 159.28C89.752 159.16 89.808 159.048 89.848 158.928C91.0991 155.981 91.6443 152.783 91.4401 149.589C91.2359 146.394 90.288 143.291 88.672 140.528L65.328 101.648L101.696 65.28L140.696 88.8C143.449 90.3865 146.533 91.3127 149.705 91.5056C152.877 91.6986 156.051 91.1531 158.976 89.912C159.096 89.872 159.208 89.816 159.328 89.768C162.261 88.5723 164.871 86.7029 166.948 84.311C169.024 81.9191 170.508 79.072 171.28 76L182.248 32H233.752L244.72 76C245.505 79.0652 247.001 81.9027 249.085 84.2833C251.17 86.6639 253.785 88.5208 256.72 89.704C256.84 89.752 256.952 89.808 257.072 89.848C260.019 91.0966 263.217 91.6404 266.411 91.4363C269.605 91.2321 272.708 90.2856 275.472 88.672L314.352 65.328L350.72 101.696L327.312 140.672C325.724 143.425 324.797 146.509 324.604 149.681C324.411 152.853 324.957 156.027 326.2 158.952V158.952C326.2 159.072 326.296 159.184 326.344 159.304C327.528 162.24 329.386 164.855 331.768 166.94C334.15 169.025 336.989 170.52 340.056 171.304L384 182.248V215.336L383.888 214.68C383.576 212.813 382.612 211.118 381.168 209.895C379.723 208.672 377.892 208.001 376 208H328C326.108 208.001 324.277 208.672 322.832 209.895C321.388 211.118 320.424 212.813 320.112 214.68L314.832 246.36C310.999 247.706 307.242 249.257 303.576 251.008L296.12 245.688C305.01 225.075 306.437 202.007 300.154 180.456C293.871 158.904 280.272 140.217 261.698 127.61C243.123 115.004 220.735 109.267 198.387 111.386C176.039 113.505 155.128 123.349 139.255 139.223C123.381 155.096 113.537 176.007 111.418 198.355C109.299 220.703 115.036 243.091 127.642 261.666C140.249 280.24 158.936 293.839 180.488 300.122C202.039 306.405 225.107 304.978 245.72 296.088L251.04 303.536C249.351 307.205 247.848 310.956 246.536 314.776L214.712 320.08C212.834 320.386 211.127 321.352 209.897 322.803C208.667 324.255 207.994 326.097 208 328V376C208.001 377.892 208.672 379.723 209.895 381.168C211.118 382.612 212.813 383.576 214.68 383.888L215.336 384H182.248L171.28 340ZM232.352 277.472L236.216 282.872C219.104 289.322 200.299 289.715 182.932 283.986C165.566 278.256 150.687 266.749 140.773 251.382C130.859 236.015 126.51 217.716 128.449 199.532C130.388 181.347 138.498 164.376 151.429 151.445C164.36 138.514 181.331 130.404 199.516 128.465C217.7 126.526 235.999 130.875 251.366 140.789C266.733 150.703 278.24 165.582 283.97 182.948C289.699 200.315 289.306 219.12 282.856 236.232L277.456 232.368C275.915 231.268 274.034 230.751 272.147 230.908C270.26 231.064 268.491 231.885 267.152 233.224L233.208 267.168C231.873 268.506 231.055 270.272 230.898 272.155C230.742 274.039 231.257 275.916 232.352 277.456V277.472ZM480 369.224L450.224 374.184C448.749 374.431 447.372 375.087 446.251 376.077C445.13 377.066 444.308 378.351 443.88 379.784C442.05 385.877 439.616 391.773 436.616 397.384C435.91 398.699 435.585 400.186 435.68 401.677C435.775 403.167 436.285 404.601 437.152 405.816L454.688 430.376L430.336 454.728L405.776 437.192C404.561 436.325 403.127 435.815 401.637 435.72C400.146 435.625 398.659 435.95 397.344 436.656C391.733 439.656 385.837 442.09 379.744 443.92C378.311 444.348 377.026 445.17 376.037 446.291C375.047 447.412 374.391 448.789 374.144 450.264L369.224 480H334.776L329.816 450.224C329.569 448.749 328.913 447.372 327.923 446.251C326.934 445.13 325.649 444.308 324.216 443.88C318.123 442.05 312.227 439.616 306.616 436.616C305.301 435.91 303.814 435.585 302.323 435.68C300.833 435.775 299.399 436.285 298.184 437.152L273.624 454.688L249.272 430.336L266.808 405.776C267.675 404.561 268.185 403.127 268.28 401.637C268.375 400.146 268.05 398.659 267.344 397.344C264.344 391.733 261.91 385.837 260.08 379.744C259.652 378.311 258.83 377.026 257.709 376.037C256.588 375.047 255.211 374.391 253.736 374.144L224 369.224V334.776L253.776 329.816C255.197 329.555 256.524 328.924 257.623 327.988C258.723 327.051 259.557 325.841 260.04 324.48C261.948 318.33 264.406 312.365 267.384 306.656C268.09 305.341 268.415 303.854 268.32 302.363C268.225 300.873 267.715 299.439 266.848 298.224L249.312 273.664L273.664 249.312L298.224 266.848C299.439 267.715 300.873 268.225 302.363 268.32C303.854 268.415 305.341 268.09 306.656 267.384C312.267 264.384 318.163 261.95 324.256 260.12C325.689 259.692 326.974 258.87 327.963 257.749C328.953 256.628 329.609 255.251 329.856 253.776L334.776 224H369.224L374.184 253.776C374.431 255.251 375.087 256.628 376.077 257.749C377.066 258.87 378.351 259.692 379.784 260.12C385.877 261.95 391.773 264.384 397.384 267.384C398.699 268.09 400.186 268.415 401.677 268.32C403.167 268.225 404.601 267.715 405.816 266.848L430.376 249.312L454.728 273.664L437.192 298.224C436.325 299.439 435.815 300.873 435.72 302.363C435.625 303.854 435.95 305.341 436.656 306.656C439.656 312.267 442.09 318.163 443.92 324.256C444.348 325.689 445.17 326.974 446.291 327.963C447.412 328.953 448.789 329.609 450.264 329.856L480.04 334.816L480 369.224Z" fill="white"/>
<path d="M352 280C337.76 280 323.839 284.223 311.999 292.134C300.159 300.046 290.93 311.291 285.481 324.447C280.031 337.603 278.605 352.08 281.383 366.047C284.162 380.013 291.019 392.842 301.088 402.912C311.158 412.981 323.987 419.838 337.954 422.617C351.92 425.395 366.397 423.969 379.553 418.519C392.71 413.07 403.954 403.841 411.866 392.001C419.777 380.161 424 366.24 424 352C423.977 332.912 416.384 314.612 402.886 301.114C389.388 287.616 371.088 280.023 352 280ZM352 408C340.924 408 330.097 404.716 320.888 398.562C311.679 392.409 304.501 383.663 300.263 373.43C296.024 363.198 294.915 351.938 297.076 341.075C299.237 330.212 304.57 320.234 312.402 312.402C320.234 304.57 330.212 299.237 341.075 297.076C351.938 294.915 363.198 296.024 373.43 300.263C383.663 304.501 392.409 311.679 398.562 320.888C404.716 330.097 408 340.924 408 352C407.983 366.847 402.078 381.081 391.579 391.579C381.081 402.078 366.847 407.983 352 408Z" fill="white"/>
<path d="M376 56H360V72H376V56Z" fill="white"/>
<path d="M448 224H464V64C464 61.8783 463.157 59.8434 461.657 58.3431C460.157 56.8429 458.122 56 456 56H392V72H448V224Z" fill="white"/>
<path d="M224 464H208V480H224V464Z" fill="white"/>
<path d="M72 360H56V472C56 474.122 56.8429 476.157 58.3431 477.657C59.8434 479.157 61.8783 480 64 480H192V464H72V360Z" fill="white"/>
</svg>
